#!OML:ASF E:\motion texture\Top Level 1\Subject 1\Session 1\male.ASF
:FULLY-SPECIFIED
:DEGREES
543
root -24.2897 17.6099 4.93692 135.764 -79.2673 -126.772
lowerback 0.167712 2.85125 5.59111
upperback -1.3846 3.83019 2.18528
thorax -1.30273 1.8382 -0.918706
lowerneck -19.9144 -1.80362 -4.32755
upperneck 17.2004 -2.49493 5.80083
head 8.78807 -0.846128 2.35803
rclavicle -3.10477e-014 -3.27995e-014
rhumerus -19.9962 12.6545 -90.2326
rradius 61.0822
rwrist 15.033
rhand -18.166 -24.854
rfingers 7.12502
rthumb 8.11014 -54.6784
lclavicle -3.10477e-014 -3.27995e-014
lhumerus -26.4946 0.629549 93.8963
lradius 47.0364
lwrist -13.6003
lhand -16.5066 30.3163
lfingers 7.12502
lthumb 9.71138 60.0724
rfemur -4.32001 0.0157883 30.9499
rtibia 32.6251
rfoot -11.3179 -13.1431
rtoes -9.11911
lfemur -34.0453 -2.92576 -5.94102
ltibia 22.2222
lfoot -1.36776 5.87716
ltoes -7.16083
544
root -24.4429 17.6092 4.9438 136.212 -79.4226 -127.294
lowerback 0.219331 2.80821 5.41387
upperback -1.35826 3.77554 2.17245
thorax -1.31771 1.81385 -0.836048
lowerneck -19.7293 -1.78554 -4.33216
upperneck 16.893 -2.48374 5.91247
head 8.6517 -0.833154 2.39497
rclavicle -3.15819e-014 1.81888e-014
rhumerus -19.3387 13.5167 -90.2908
rradius 62.1345
rwrist 15.2655
rhand -18.2207 -24.6915
rfingers 7.12502
rthumb 8.05736 -54.5179
lclavicle -3.15819e-014 1.81888e-014
lhumerus -25.5675 -0.593856 94.4943
lradius 47.5736
lwrist -13.3108
lhand -16.6223 30.5726
lfingers 7.12502
lthumb 9.59981 60.3339
rfemur -4.87265 -0.267374 30.564
rtibia 34.1252
rfoot -10.5868 -13.2254
rtoes -9.24642
lfemur -33.8407 -2.96381 -6.35134
ltibia 22.5587
lfoot -1.41746 5.58774
ltoes -6.76307
545
root -24.5964 17.6098 4.9512 136.682 -79.5883 -127.844
lowerback 0.274082 2.76137 5.23023
upperback -1.33103 3.71578 2.16114
thorax -1.33401 1.78699 -0.748256
lowerneck -19.5426 -1.7655 -4.34084
upperneck 16.5749 -2.46904 6.03074
head 8.51195 -0.818501 2.435
rclavicle -1.79217e-014 -3.72224e-014
rhumerus -18.6288 14.3783 -90.3124
rradius 63.1705
rwrist 15.5006
rhand -18.2879 -24.5382
rfingers 7.12502
rthumb 7.99244 -54.3671
lclavicle -1.79217e-014 -3.72224e-014
lhumerus -24.6034 -1.85204 95.0601
lradius 48.1382
lwrist -13.009
lhand -16.7287 30.8212
lfingers 7.12502
lthumb 9.49707 60.5872
rfemur -5.47624 -0.559884 30.1643
rtibia 35.6551
rfoot -9.80838 -13.3305
rtoes -9.27954
lfemur -33.6068 -2.9858 -6.78847
ltibia 22.9198
lfoot -1.4978 5.29554
ltoes -6.36978
546
root -24.7499 17.6117 4.95908 137.165 -79.7646 -128.411
lowerback 0.332495 2.71016 5.04148
upperback -1.30515 3.65026 2.15165
thorax -1.35413 1.7572 -0.655815
lowerneck -19.3458 -1.74345 -4.35079
upperneck 16.2411 -2.45062 6.15105
head 8.36554 -0.802556 2.47602
rclavicle -1.23868e-014 -3.37934e-015
rhumerus -17.8682 15.2379 -90.2958
rradius 64.1878
rwrist 15.7405
rhand -18.3695 -24.3826
rfingers 7.12502
rthumb 7.91373 -54.2145
lclavicle -1.23868e-014 -3.37934e-015
lhumerus -23.6054 -3.14007 95.5878
lradius 48.7304
lwrist -12.6947
lhand -16.8311 31.055
lfingers 7.12502
lthumb 9.39831 60.8254
rfemur -6.13078 -0.861977 29.7538
rtibia 37.2069
rfoot -8.99207 -13.4569
rtoes -9.2169
lfemur -33.3455 -2.99528 -7.24784
ltibia 23.2991
lfoot -1.60774 5.00347
ltoes -5.97892
547
root -24.9034 17.615 4.96738 137.671 -79.9505 -129.007
lowerback 0.393506 2.65532 4.84752
upperback -1.27967 3.57981 2.14349
thorax -1.37639 1.72495 -0.559034
lowerneck -19.1405 -1.7194 -4.36054
upperneck 15.89 -2.42823 6.27105
head 8.21222 -0.78536 2.51697
rclavicle 1.08648e-014 -1.59028e-015
rhumerus -17.0549 16.0937 -90.2388
rradius 65.1874
rwrist 15.9815
rhand -18.4582 -24.2439
rfingers 7.12502
rthumb 7.82815 -54.0789
lclavicle 1.08648e-014 -1.59028e-015
lhumerus -22.5706 -4.45168 96.0714
lradius 49.351
lwrist -12.3725
lhand -16.9235 31.2781
lfingers 7.12502
lthumb 9.30911 61.0526
rfemur -6.83384 -1.1715 29.3332
rtibia 38.7715
rfoot -8.15207 -13.6019
rtoes -9.06374
lfemur -33.0531 -2.9971 -7.72596
ltibia 23.6846
lfoot -1.74102 4.7167
ltoes -5.60304
548
root -25.0568 17.6194 4.97604 138.203 -80.1445 -129.633
lowerback 0.45745 2.59721 4.64981
upperback -1.25552 3.50494 2.13669
thorax -1.40172 1.69045 -0.458718
lowerneck -18.9246 -1.69383 -4.36559
upperneck 15.5199 -2.40252 6.38486
head 8.05103 -0.7676 2.55501
rclavicle 5.51006e-015 -6.85807e-015
rhumerus -16.1864 16.9465 -90.1391
rradius 66.1653
rwrist 16.2191
rhand -18.5613 -24.1117
rfingers 7.12502
rthumb 7.72856 -53.9505
lclavicle 5.51006e-015 -6.85807e-015
lhumerus -21.5001 -5.78244 96.505
lradius 50.0023
lwrist -12.0389
lhand -17.0111 31.4881
lfingers 7.12502
lthumb 9.22466 61.2663
rfemur -7.58379 -1.48587 28.9056
rtibia 40.3388
rfoot -7.29682 -13.7647
rtoes -8.81628
lfemur -32.7287 -2.99546 -8.21758
ltibia 24.0671
lfoot -1.89648 4.43894
ltoes -5.2417
549
root -25.21 17.6251 4.98501 138.771 -80.345 -130.299
lowerback 0.523418 2.5365 4.44818
upperback -1.23268 3.42647 2.13128
thorax -1.42954 1.65414 -0.354656
lowerneck -18.7032 -1.66576 -4.37124
upperneck 15.1353 -2.37196 6.49845
head 7.88449 -0.748189 2.59328
rclavicle 2.06783e-014 -1.55673e-014
rhumerus -15.2618 17.7942 -89.994
rradius 67.1222
rwrist 16.4525
rhand -18.6784 -23.9917
rfingers 7.12502
rthumb 7.61556 -53.8346
lclavicle 2.06783e-014 -1.55673e-014
lhumerus -20.3917 -7.12603 96.8836
lradius 50.683
lwrist -11.6988
lhand -17.0921 31.6866
lfingers 7.12502
lthumb 9.14646 61.4683
rfemur -8.37891 -1.80358 28.4725
rtibia 41.9005
rfoot -6.43959 -13.9427
rtoes -8.48877
lfemur -32.371 -2.99474 -8.71879
ltibia 24.4367
lfoot -2.07017 4.17323
ltoes -4.89245
550
root -25.3631 17.6319 4.99422 139.373 -80.5527 -131
lowerback 0.590804 2.47312 4.24299
upperback -1.21116 3.34423 2.12712
thorax -1.45943 1.61593 -0.247146
lowerneck -18.478 -1.636 -4.37867
upperneck 14.7364 -2.33761 6.61335
head 7.71313 -0.727523 2.63234
rclavicle 2.24671e-014 1.91942e-016
rhumerus -14.2794 18.635 -89.8007
rradius 68.0573
rwrist 16.6791
rhand -18.817 -23.8767
rfingers 7.12502
rthumb 7.48178 -53.7244
lclavicle 2.24671e-014 1.91942e-016
lhumerus -19.2426 -8.47688 97.2021
lradius 51.3919
lwrist -11.3533
lhand -17.1722 31.8698
lfingers 7.12502
lthumb 9.06922 61.6548
rfemur -9.21665 -2.12512 28.0359
rtibia 43.4464
rfoot -5.59221 -14.1343
rtoes -8.08449
lfemur -31.9805 -2.99992 -9.22631
ltibia 24.7852
lfoot -2.25623 3.91964
ltoes -4.55184
551
root -25.5159 17.6399 5.00363 140.009 -80.7652 -131.737
lowerback 0.659624 2.4076 4.03753
upperback -1.19213 3.25898 2.1233
thorax -1.49229 1.57616 -0.138944
lowerneck -18.2434 -1.60376 -4.38677
upperneck 14.3207 -2.29876 6.72964
head 7.53512 -0.705351 2.67206
rclavicle -2.31553e-014 2.2736e-015
rhumerus -13.2396 19.4662 -89.5592
rradius 68.9687
rwrist 16.8945
rhand -18.9726 -23.7586
rfingers 7.12502
rthumb 7.33157 -53.6116
lclavicle -2.31553e-014 2.2736e-015
lhumerus -18.0547 -9.82841 97.4544
lradius 52.1292
lwrist -11.0043
lhand -17.2428 32.0429
lfingers 7.12502
lthumb 9.00108 61.8309
rfemur -10.093 -2.44688 27.5991
rtibia 44.9662
rfoot -4.76873 -14.3376
rtoes -7.61476
lfemur -31.555 -3.01311 -9.73617
ltibia 25.1033
lfoot -2.44922 3.67982
ltoes -4.20953
552
root -25.6685 17.6488 5.01315 140.682 -80.982 -132.513
lowerback 0.727471 2.33972 3.83093
upperback -1.17472 3.17024 2.12094
thorax -1.52596 1.53463 -0.0282781
lowerneck -18.0051 -1.56939 -4.39498
upperneck 13.8903 -2.25535 6.84429
head 7.35217 -0.681792 2.71137
rclavicle -2.35187e-014 -1.06598e-014
rhumerus -12.1394 20.2872 -89.2657
rradius 69.8549
rwrist 17.0987
rhand -19.1393 -23.6575
rfingers 7.12502
rthumb 7.17067 -53.516
lclavicle -2.35187e-014 -1.06598e-014
lhumerus -16.8232 -11.1734 97.6375
lradius 52.8934
lwrist -10.6497
lhand -17.3126 32.2088
lfingers 7.12502
lthumb 8.93375 61.9997
rfemur -11.0058 -2.7682 27.1643
rtibia 46.4492
rfoot -3.9777 -14.5499
rtoes -7.09122
lfemur -31.0966 -3.03279 -10.2472
ltibia 25.3855
lfoot -2.64816 3.45297
ltoes -3.86309
553
root -25.8208 17.6588 5.02274 141.394 -81.2023 -133.328
lowerback 0.796731 2.27024 3.62452
upperback -1.16036 3.0792 2.11925
thorax -1.56304 1.4919 0.0831758
lowerneck -17.7642 -1.53355 -4.40409
upperneck 13.447 -2.20837 6.95846
head 7.16519 -0.657238 2.75068
rclavicle 5.2181e-015 -2.36057e-014
rhumerus -10.9799 21.0935 -88.9188
rradius 70.7154
rwrist 17.2894
rhand -19.3221 -23.5652
rfingers 7.12502
rthumb 6.99424 -53.4297
lclavicle 5.2181e-015 -2.36057e-014
lhumerus -15.5483 -12.5066 97.7476
lradius 53.6823
lwrist -10.29
lhand -17.3816 32.3626
lfingers 7.12502
lthumb 8.86713 62.1563
rfemur -11.9503 -3.08838 26.733
rtibia 47.8849
rfoot -3.22786 -14.7698
rtoes -6.51694
lfemur -30.6053 -3.05781 -10.7588
ltibia 25.6286
lfoot -2.85377 3.23887
ltoes -3.51701
554
root -25.9727 17.6696 5.03233 142.152 -81.425 -134.188
lowerback 0.865276 2.19951 3.41848
upperback -1.15049 2.98626 2.11834
thorax -1.60382 1.44814 0.195498
lowerneck -17.5158 -1.49573 -4.41444
upperneck 12.9889 -2.15707 7.07179
head 6.97267 -0.631495 2.78996
rclavicle 1.2188e-014 1.10325e-014
rhumerus -9.76224 21.8842 -88.517
rradius 71.5496
rwrist 17.4619
rhand -19.5182 -23.4851
rfingers 7.12502
rthumb 6.80492 -53.3558
lclavicle 1.2188e-014 1.10325e-014
lhumerus -14.23 -13.8192 97.7823
lradius 54.4942
lwrist -9.92484
lhand -17.4454 32.5085
lfingers 7.12502
lthumb 8.80558 62.3048
rfemur -12.9252 -3.40601 26.3072
rtibia 49.2647
rfoot -2.53211 -14.9938
rtoes -5.91084
lfemur -30.084 -3.08705 -11.2694
ltibia 25.8295
lfoot -3.07164 3.03875
ltoes -3.18144
555
root -26.1244 17.6811 5.04189 142.964 -81.6482 -135.1
lowerback 0.932509 2.12833 3.21337
upperback -1.14353 2.8924 2.11832
thorax -1.64624 1.40391 0.308545
lowerneck -17.2644 -1.45648 -4.42838
upperneck 12.5168 -2.10176 7.18558
head 6.77579 -0.604632 2.83001
rclavicle -4.41053e-015 -1.25234e-014
rhumerus -8.4849 22.6545 -88.0578
rradius 72.3578
rwrist 17.6183
rhand -19.7274 -23.42
rfingers 7.12502
rthumb 6.60294 -53.2971
lclavicle -4.41053e-015 -1.25234e-014
lhumerus -12.8631 -15.1062 97.7384
lradius 55.3256
lwrist -9.5526
lhand -17.5039 32.6425
lfingers 7.12502
lthumb 8.7491 62.4412
rfemur -13.9257 -3.71997 25.8881
rtibia 50.5792
rfoot -1.896 -15.2211
rtoes -5.27754
lfemur -29.5332 -3.11793 -11.7785
ltibia 25.9874
lfoot -3.30598 2.85254
ltoes -2.87391
556
root -26.2756 17.6933 5.05133 143.829 -81.8709 -136.064
lowerback 0.997708 2.05672 3.01049
upperback -1.14111 2.79768 2.11857
thorax -1.69148 1.3592 0.420949
lowerneck -17.0071 -1.41528 -4.44492
upperneck 12.0311 -2.04233 7.30097
head 6.57416 -0.576525 2.87102
rclavicle 2.24875e-015 -1.78906e-015
rhumerus -7.14822 23.4017 -87.5409
rradius 73.1357
rwrist 17.7541
rhand -19.9527 -23.3616
rfingers 7.12502
rthumb 6.38548 -53.2454
lclavicle 2.24875e-015 -1.78906e-015
lhumerus -11.4489 -16.3598 97.6132
lradius 56.1752
lwrist -9.17104
lhand -17.5581 32.7663
lfingers 7.12502
lthumb 8.69677 62.5671
rfemur -14.9474 -4.02913 25.4782
rtibia 51.8173
rfoot -1.32458 -15.4517
rtoes -4.63274
lfemur -28.9553 -3.14906 -12.2842
ltibia 26.1019
lfoot -3.55791 2.67705
ltoes -2.58741
